<?xml version="1.0" encoding="UTF-8"?>
<svg id="Layer_2" data-name="Layer 2" xmlns="http://www.w3.org/2000/svg" viewBox="0 0 574.86 617.31">
  <defs>
    <style>
      .cls-1 {
        fill: #5dba47;
      }

      .cls-1, .cls-2, .cls-3 {
        stroke-width: 0px;
      }

      .cls-2 {
        fill: #fff;
      }

      .cls-3 {
        fill: #231f20;
      }
    </style>
  </defs>
  <g id="Layer_1-2" data-name="Layer 1">
    <rect class="cls-3" width="574.86" height="617.31" rx="116.96" ry="116.96"/>
    <path class="cls-2" d="M317.05,93.63l4.24,4.73c11.21,12.51,28.54,17.6,44.74,13.14l6.12-1.69c25.42-7,51.3,9.62,55.49,35.66l1.01,6.27c2.67,16.59,14.5,30.24,30.54,35.24l6.06,1.89c25.18,7.85,37.95,35.83,27.4,60l-2.54,5.82c-6.72,15.4-4.15,33.28,6.64,46.16l4.08,4.87c16.93,20.22,12.56,50.66-9.39,65.29l-5.28,3.52c-13.98,9.32-21.48,25.75-19.37,42.42l.8,6.3c3.32,26.16-16.83,49.41-43.19,49.85l-6.35.11c-16.8.28-31.99,10.05-39.23,25.21l-2.73,5.73c-11.36,23.8-40.87,32.47-63.29,18.58l-5.4-3.34c-14.29-8.85-32.35-8.85-46.63,0l-5.4,3.34c-22.42,13.88-51.93,5.22-63.29-18.58l-2.73-5.73c-7.24-15.17-22.43-24.93-39.23-25.21l-6.35-.11c-26.37-.44-46.51-23.69-43.19-49.85l.8-6.3c2.11-16.67-5.39-33.1-19.37-42.42l-5.28-3.52c-21.94-14.63-26.32-45.07-9.39-65.29l4.08-4.87c10.79-12.88,13.36-30.76,6.64-46.16l-2.54-5.82c-10.55-24.17,2.23-52.15,27.4-60l6.06-1.89c16.04-5,27.87-18.65,30.54-35.24l1.01-6.27c4.19-26.04,30.06-42.67,55.49-35.66l6.12,1.69c16.2,4.46,33.53-.63,44.74-13.14l4.24-4.73c17.6-19.64,48.36-19.64,65.96,0Z"/>
    <path class="cls-1" d="M415.79,316.37l-103.35-103.34c-5.14-5.14-12.05-8.08-19.22-8.18l-97.68-1.35c-11.14-.15-20.07,8.74-19.96,19.88l.98,98.12c.07,7.2,3.02,14.16,8.18,19.33l103.3,103.3c10.7,10.7,27.83,10.93,38.24.52l90.02-90.02c10.41-10.41,10.18-27.54-.52-38.24ZM205.83,253.7c-10.91,0-19.76-8.85-19.76-19.76s8.85-19.76,19.76-19.76,19.76,8.85,19.76,19.76-8.85,19.76-19.76,19.76Z"/>
    <path class="cls-3" d="M301.35,266.79l14.08,30.05c.43.92,1.3,1.55,2.31,1.68l32.93,4.11c2.49.31,3.49,3.38,1.66,5.09l-24.23,22.68c-.74.69-1.08,1.72-.88,2.72l6.27,32.59c.47,2.46-2.14,4.36-4.33,3.15l-29.06-16.03c-.89-.49-1.97-.49-2.86,0l-29.06,16.03c-2.2,1.21-4.81-.69-4.33-3.15l6.27-32.59c.19-1-.14-2.02-.88-2.72l-24.23-22.68c-1.83-1.71-.83-4.78,1.66-5.09l32.93-4.11c1.01-.13,1.88-.76,2.31-1.68l14.08-30.05c1.06-2.27,4.29-2.27,5.36,0Z"/>
  </g>
</svg>